<svg width="142" height="40" viewBox="0 0 142 40" fill="none" xmlns="http://www.w3.org/2000/svg">
<path fill-rule="evenodd" clip-rule="evenodd" d="M28.25 13.8125C28.0014 13.8125 27.7629 13.9113 27.5871 14.0871C27.4113 14.2629 27.3125 14.5014 27.3125 14.75V25.392L29.3523 23.3523C29.4577 23.2468 29.6008 23.1875 29.75 23.1875H38.75C38.9986 23.1875 39.2371 23.0887 39.4129 22.9129C39.5887 22.7371 39.6875 22.4986 39.6875 22.25V14.75C39.6875 14.5014 39.5887 14.2629 39.4129 14.0871C39.2371 13.9113 38.9986 13.8125 38.75 13.8125H28.25ZM26.7916 13.2916C27.1784 12.9048 27.703 12.6875 28.25 12.6875H38.75C39.297 12.6875 39.8216 12.9048 40.2084 13.2916C40.5952 13.6784 40.8125 14.203 40.8125 14.75V22.25C40.8125 22.797 40.5952 23.3216 40.2084 23.7084C39.8216 24.0952 39.297 24.3125 38.75 24.3125H29.983L27.1477 27.1477C26.9869 27.3086 26.7449 27.3567 26.5347 27.2697C26.3245 27.1826 26.1875 26.9775 26.1875 26.75V14.75C26.1875 14.203 26.4048 13.6784 26.7916 13.2916Z" fill="#737877"/>
<path d="M55.862 25.168C54.8913 25.168 54.0513 24.958 53.342 24.538C52.642 24.1087 52.1007 23.516 51.718 22.76C51.3353 21.9947 51.144 21.1127 51.144 20.114C51.144 19.106 51.3353 18.224 51.718 17.468C52.1007 16.7027 52.642 16.1053 53.342 15.676C54.0513 15.2467 54.8913 15.032 55.862 15.032C57.01 15.032 57.948 15.312 58.676 15.872C59.404 16.432 59.866 17.216 60.062 18.224H58.41C58.2793 17.6547 57.9993 17.202 57.57 16.866C57.1407 16.53 56.5667 16.362 55.848 16.362C54.868 16.362 54.0933 16.698 53.524 17.37C52.9547 18.0327 52.67 18.9473 52.67 20.114C52.67 21.2713 52.9547 22.1813 53.524 22.844C54.0933 23.5067 54.868 23.838 55.848 23.838C56.5667 23.838 57.1407 23.6793 57.57 23.362C57.9993 23.0447 58.2793 22.6107 58.41 22.06H60.062C59.866 23.0307 59.404 23.7913 58.676 24.342C57.948 24.8927 57.01 25.168 55.862 25.168ZM64.8852 25.168C64.2226 25.168 63.6252 25.0187 63.0932 24.72C62.5706 24.412 62.1552 23.9873 61.8472 23.446C61.5392 22.8953 61.3852 22.256 61.3852 21.528C61.3852 20.8 61.5392 20.1653 61.8472 19.624C62.1646 19.0733 62.5892 18.6487 63.1212 18.35C63.6532 18.042 64.2459 17.888 64.8992 17.888C65.5619 17.888 66.1546 18.042 66.6772 18.35C67.2092 18.6487 67.6292 19.0733 67.9372 19.624C68.2546 20.1653 68.4132 20.8 68.4132 21.528C68.4132 22.256 68.2546 22.8953 67.9372 23.446C67.6292 23.9873 67.2092 24.412 66.6772 24.72C66.1452 25.0187 65.5479 25.168 64.8852 25.168ZM64.8852 23.894C65.2399 23.894 65.5666 23.8053 65.8652 23.628C66.1732 23.4507 66.4206 23.1893 66.6072 22.844C66.7939 22.4893 66.8872 22.0507 66.8872 21.528C66.8872 21.0053 66.7939 20.5713 66.6072 20.226C66.4299 19.8713 66.1872 19.6053 65.8792 19.428C65.5806 19.2507 65.2539 19.162 64.8992 19.162C64.5446 19.162 64.2132 19.2507 63.9052 19.428C63.6066 19.6053 63.3639 19.8713 63.1772 20.226C62.9906 20.5713 62.8972 21.0053 62.8972 21.528C62.8972 22.0507 62.9906 22.4893 63.1772 22.844C63.3639 23.1893 63.6066 23.4507 63.9052 23.628C64.2039 23.8053 64.5306 23.894 64.8852 23.894ZM70.0181 25V18.056H71.3341L71.4601 19.036C71.6841 18.6813 71.9781 18.4013 72.3421 18.196C72.7154 17.9907 73.1447 17.888 73.6301 17.888C74.7314 17.888 75.4967 18.322 75.9261 19.19C76.1781 18.7887 76.5141 18.4713 76.9341 18.238C77.3634 18.0047 77.8254 17.888 78.3201 17.888C79.1881 17.888 79.8694 18.1493 80.3641 18.672C80.8587 19.1947 81.1061 19.974 81.1061 21.01V25H79.6221V21.164C79.6221 19.82 79.1087 19.148 78.0821 19.148C77.5594 19.148 77.1301 19.344 76.7941 19.736C76.4674 20.128 76.3041 20.688 76.3041 21.416V25H74.8201V21.164C74.8201 19.82 74.3021 19.148 73.2661 19.148C72.7527 19.148 72.3281 19.344 71.9921 19.736C71.6654 20.128 71.5021 20.688 71.5021 21.416V25H70.0181ZM82.8423 25V18.056H84.1583L84.2843 19.036C84.5083 18.6813 84.8023 18.4013 85.1663 18.196C85.5396 17.9907 85.969 17.888 86.4543 17.888C87.5556 17.888 88.321 18.322 88.7503 19.19C89.0023 18.7887 89.3383 18.4713 89.7583 18.238C90.1876 18.0047 90.6496 17.888 91.1443 17.888C92.0123 17.888 92.6936 18.1493 93.1883 18.672C93.683 19.1947 93.9303 19.974 93.9303 21.01V25H92.4463V21.164C92.4463 19.82 91.933 19.148 90.9063 19.148C90.3836 19.148 89.9543 19.344 89.6183 19.736C89.2916 20.128 89.1283 20.688 89.1283 21.416V25H87.6443V21.164C87.6443 19.82 87.1263 19.148 86.0903 19.148C85.577 19.148 85.1523 19.344 84.8163 19.736C84.4896 20.128 84.3263 20.688 84.3263 21.416V25H82.8423ZM98.9145 25.168C98.2332 25.168 97.6265 25.0187 97.0945 24.72C96.5718 24.412 96.1612 23.9873 95.8625 23.446C95.5638 22.9047 95.4145 22.2747 95.4145 21.556C95.4145 20.828 95.5592 20.1887 95.8485 19.638C96.1472 19.0873 96.5578 18.658 97.0805 18.35C97.6125 18.042 98.2285 17.888 98.9285 17.888C99.6098 17.888 100.203 18.042 100.707 18.35C101.211 18.6487 101.603 19.05 101.883 19.554C102.163 20.058 102.303 20.6133 102.303 21.22C102.303 21.3133 102.298 21.416 102.289 21.528C102.289 21.6307 102.284 21.7473 102.275 21.878H96.8705C96.9172 22.55 97.1365 23.0633 97.5285 23.418C97.9298 23.7633 98.3918 23.936 98.9145 23.936C99.3345 23.936 99.6845 23.8427 99.9645 23.656C100.254 23.46 100.469 23.1987 100.609 22.872H102.093C101.906 23.5253 101.533 24.0713 100.973 24.51C100.422 24.9487 99.7358 25.168 98.9145 25.168ZM98.9145 19.106C98.4198 19.106 97.9812 19.2553 97.5985 19.554C97.2158 19.8433 96.9825 20.282 96.8985 20.87H100.819C100.791 20.3287 100.599 19.8993 100.245 19.582C99.8898 19.2647 99.4465 19.106 98.9145 19.106ZM103.842 25V18.056H105.158L105.27 19.274C105.485 18.8447 105.798 18.5087 106.208 18.266C106.628 18.014 107.109 17.888 107.65 17.888C108.49 17.888 109.148 18.1493 109.624 18.672C110.11 19.1947 110.352 19.974 110.352 21.01V25H108.882V21.164C108.882 19.82 108.332 19.148 107.23 19.148C106.68 19.148 106.222 19.344 105.858 19.736C105.504 20.128 105.326 20.688 105.326 21.416V25H103.842ZM115.012 25C114.331 25 113.789 24.8367 113.388 24.51C112.987 24.174 112.786 23.5813 112.786 22.732V19.302H111.596V18.056H112.786L112.968 16.292H114.27V18.056H116.23V19.302H114.27V22.732C114.27 23.1147 114.349 23.3807 114.508 23.53C114.676 23.67 114.961 23.74 115.362 23.74H116.16V25H115.012Z" fill="#484E4C"/>
</svg>
